<?xml version="1.0" encoding="UTF-8"?>
<svg version="1.1" xmlns="http://www.w3.org/2000/svg" width="366" height="140">
<path d="M0 0 C0.99 0.66 1.98 1.32 3 2 C5.22396396 1.90902446 5.22396396 1.90902446 7.625 1.4375 C11.5263279 0.92223028 13.93458538 1.11390024 17.5625 2.625 C21.16808581 4.04825756 22.84809981 4.01715166 26.4375 2.5625 C31.6331819 0.46056914 35.81234464 1.00474794 41 3 C46.13083464 6.84812598 47.43458212 10.85742384 48.5390625 16.99609375 C49.23533434 22.04273584 49.14521788 27.10270334 49.125 32.1875 C49.13080078 33.66379883 49.13080078 33.66379883 49.13671875 35.16992188 C49.13542969 36.11802734 49.13414062 37.06613281 49.1328125 38.04296875 C49.13168457 38.89914795 49.13055664 39.75532715 49.12939453 40.63745117 C49.00452657 42.91735169 48.72857797 44.83779742 48 47 C45.46064246 48.97505587 44.11021358 49.00661281 40.875 48.8125 C38 48 38 48 36 45 C35.78881836 42.7668457 35.78881836 42.7668457 35.83984375 40.17578125 C35.8562793 38.75555664 35.8562793 38.75555664 35.87304688 37.30664062 C35.89431641 36.31857422 35.91558594 35.33050781 35.9375 34.3125 C36.05528869 27.75559603 35.99328528 21.49100383 35 15 C32.65466049 14.23043864 32.65466049 14.23043864 30 14 C28.22764337 15.04877084 28.22764337 15.04877084 27 17 C26.52586762 19.85286025 26.52586762 19.85286025 26.55859375 23.09375 C26.53216797 24.28871094 26.50574219 25.48367187 26.47851562 26.71484375 C26.45821289 28.58849609 26.45821289 28.58849609 26.4375 30.5 C26.40310378 32.96888432 26.36052176 35.4376722 26.30859375 37.90625 C26.29626709 39.00259766 26.28394043 40.09894531 26.27124023 41.22851562 C26 44 26 44 24 47 C21.8359375 47.29296875 21.8359375 47.29296875 19.375 47.1875 C18.55773437 47.16042969 17.74046875 47.13335937 16.8984375 47.10546875 C16.27195313 47.07066406 15.64546875 47.03585938 15 47 C13.67812772 44.35625545 13.80431555 42.25021433 13.71875 39.29296875 C13.68136719 38.14892578 13.64398438 37.00488281 13.60546875 35.82617188 C13.55326172 34.0250293 13.55326172 34.0250293 13.5 32.1875 C13.43090365 29.82670801 13.35812366 27.46602029 13.28125 25.10546875 C13.25095703 24.05512451 13.22066406 23.00478027 13.18945312 21.92260742 C13.0125377 19.19341343 12.60646791 16.66311843 12 14 C9.69 14.33 7.38 14.66 5 15 C3.22486567 18.83441388 2.74083256 21.89389504 2.69140625 26.10546875 C2.66626953 27.25337891 2.64113281 28.40128906 2.61523438 29.58398438 C2.57990745 31.99799066 2.54869658 34.41206048 2.52148438 36.82617188 C2.49505859 37.97021484 2.46863281 39.11425781 2.44140625 40.29296875 C2.42795166 41.3399292 2.41449707 42.38688965 2.40063477 43.46557617 C2.26842529 44.30193604 2.13621582 45.1382959 2 46 C-2.1795645 48.78637633 -4.14668677 47.79562512 -9 47 C-9.82544645 36.54925833 -10.15514187 26.10752121 -10.25 15.625 C-10.27126953 14.43028076 -10.29253906 13.23556152 -10.31445312 12.00463867 C-10.31896484 10.88162354 -10.32347656 9.7586084 -10.328125 8.6015625 C-10.3374707 7.59432129 -10.34681641 6.58708008 -10.35644531 5.54931641 C-10 3 -10 3 -8.69824219 1.16943359 C-5.88373505 -0.76867583 -3.30045726 -0.29468368 0 0 Z " fill="#CDB47A" transform="translate(212,38)"/>
<path d="M0 0 C6.16527302 3.44837304 8.30063143 8.7143943 10.44921875 15.16015625 C10.80538024 19.42824983 10.9578545 23.70481408 11.11669922 27.98413086 C11.19881533 30.08732361 11.3023822 32.18880026 11.40625 34.29101562 C11.45836595 35.63145919 11.50919003 36.97195373 11.55859375 38.3125 C11.60983398 39.52929443 11.66107422 40.74608887 11.71386719 41.99975586 C11.42533523 45.4453704 10.95505951 46.80939421 8.44921875 49.16015625 C5.26171875 49.41015625 5.26171875 49.41015625 2.44921875 49.16015625 C1.78921875 47.84015625 1.12921875 46.52015625 0.44921875 45.16015625 C-0.54078125 45.65515625 -0.54078125 45.65515625 -1.55078125 46.16015625 C-2.16822164 48.904908 -2.16822164 48.904908 -2.55078125 52.09765625 C-3.33069872 57.94007372 -3.33069872 57.94007372 -5.55078125 60.16015625 C-7.56005859 60.01025391 -7.56005859 60.01025391 -10.01171875 59.44921875 C-10.90729492 59.24844727 -11.80287109 59.04767578 -12.72558594 58.84082031 C-13.65790039 58.61620117 -14.59021484 58.39158203 -15.55078125 58.16015625 C-16.43926758 57.94842773 -17.32775391 57.73669922 -18.24316406 57.51855469 C-20.89174109 56.8736753 -23.53424599 56.20825857 -26.17578125 55.53515625 C-27.08457031 55.30570313 -27.99335938 55.07625 -28.9296875 54.83984375 C-31.13728286 54.28213545 -33.34429085 53.72221712 -35.55078125 53.16015625 C-36.62666453 48.36758527 -36.63473979 45.47314056 -34.45458984 41.03466797 C-33.46402944 38.98023177 -32.69957535 36.90985795 -31.9453125 34.7578125 C-31.68427734 34.01337891 -31.42324219 33.26894531 -31.15429688 32.50195312 C-30.89326172 31.74978516 -30.63222656 30.99761719 -30.36328125 30.22265625 C-30.09064453 29.44341797 -29.81800781 28.66417969 -29.53710938 27.86132812 C-28.87282151 25.9616979 -28.21149124 24.06103385 -27.55078125 22.16015625 C-25.94203125 22.03640625 -25.94203125 22.03640625 -24.30078125 21.91015625 C-20.5356762 21.52190449 -20.5356762 21.52190449 -18.56640625 19.14453125 C-15.66132172 16.28448679 -13.29804082 16.5582029 -9.30078125 16.41015625 C-8.0375 16.3534375 -6.77421875 16.29671875 -5.47265625 16.23828125 C-4.02632813 16.19960938 -4.02632813 16.19960938 -2.55078125 16.16015625 C-3.77473357 13.61433229 -3.77473357 13.61433229 -5.55078125 11.16015625 C-10.99091596 10.43548992 -10.99091596 10.43548992 -15.73828125 12.66015625 C-16.33640625 13.15515625 -16.93453125 13.65015625 -17.55078125 14.16015625 C-21.32638912 14.62059623 -22.29314903 14.33191106 -25.55078125 12.16015625 C-26.55078125 9.91015625 -26.55078125 9.91015625 -26.55078125 7.16015625 C-20.55184983 -1.83824088 -10.16298085 -3.34615756 0 0 Z M-13.55078125 21.16015625 C-14.54078125 22.64515625 -14.54078125 22.64515625 -15.55078125 24.16015625 C-12.90339209 25.62078475 -11.65629791 26.16015625 -8.55078125 26.16015625 C-8.55078125 24.84015625 -8.55078125 23.52015625 -8.55078125 22.16015625 C-10.20078125 21.83015625 -11.85078125 21.50015625 -13.55078125 21.16015625 Z M-21.55078125 35.16015625 C-22.78606643 36.19440534 -22.78606643 36.19440534 -22.86328125 38.41015625 C-22.45723451 41.98336754 -20.93710674 43.55011275 -18.55078125 46.16015625 C-14.76694446 45.23521837 -12.98384431 44.76644454 -10.67578125 41.53515625 C-10.30453125 40.75140625 -9.93328125 39.96765625 -9.55078125 39.16015625 C-10.66453125 39.05703125 -11.77828125 38.95390625 -12.92578125 38.84765625 C-14.72015625 38.50734375 -14.72015625 38.50734375 -16.55078125 38.16015625 C-17.21078125 37.17015625 -17.87078125 36.18015625 -18.55078125 35.16015625 C-19.54078125 35.16015625 -20.53078125 35.16015625 -21.55078125 35.16015625 Z " fill="#8CBBAF" transform="translate(297.55078125,37.83984375)"/>
<path d="M0 0 C0 0.99 0 1.98 0 3 C0.639375 2.67 1.27875 2.34 1.9375 2 C7.27194784 0.25813948 12.61786676 -0.03245002 17.75 2.5 C23.08443239 6.02740889 25.80024709 11.41948308 27.3125 17.5 C29.03484601 27.20475731 27.59259963 35.62275632 23.3125 44.5 C20.21044204 47.85357617 17.50416723 49.25796257 13 50 C9.28335733 49.94123885 5.67245807 49.56031989 2 49 C2.01047363 49.59014893 2.02094727 50.18029785 2.03173828 50.78833008 C2.07332044 53.46301004 2.0993329 56.13762197 2.125 58.8125 C2.14175781 59.74126953 2.15851563 60.67003906 2.17578125 61.62695312 C2.18222656 62.51962891 2.18867188 63.41230469 2.1953125 64.33203125 C2.20578613 65.15421143 2.21625977 65.9763916 2.22705078 66.82348633 C2 69 2 69 0 72 C-3.0655345 72.86634671 -5.10840951 73.3122526 -8.14909363 72.24734497 C-10 71 -10 71 -10.73950195 67.22998047 C-11.16921662 60.9372655 -11.16228632 54.62503117 -11.16796875 48.3203125 C-11.17129715 47.0305954 -11.17462555 45.7408783 -11.17805481 44.41207886 C-11.18400125 41.70081746 -11.18589894 38.98958776 -11.18530273 36.27832031 C-11.18520039 32.80480349 -11.19894586 29.33148778 -11.21607494 25.85801888 C-11.22984283 22.53294672 -11.2292821 19.20791282 -11.23046875 15.8828125 C-11.23765427 14.63597687 -11.24483978 13.38914124 -11.25224304 12.10452271 C-11.2476281 10.37659988 -11.2476281 10.37659988 -11.24291992 8.61376953 C-11.24434494 7.59944855 -11.24576996 6.58512756 -11.24723816 5.54006958 C-11 3 -11 3 -9 0 C-5.52176885 -1.15941038 -3.54104422 -0.70820884 0 0 Z M3.625 14.625 C0.4949723 19.19965586 0.40547331 24.5775066 1 30 C1.76257306 32.57987379 2.72495338 34.59702752 4 37 C6.76250036 38.38125018 8.94731099 38.19079306 12 38 C15.43980104 34.56019896 15.15756732 30.83041695 15.1875 26.125 C15.16046792 21.70255142 14.82161881 18.09864232 13 14 C8.07032567 12.71691326 8.07032567 12.71691326 3.625 14.625 Z " fill="#8E974B" transform="translate(323,36)"/>
<path d="M0 0 C1.74506615 1.74506615 1.23282784 4.19039143 1.31640625 6.56640625 C1.37924805 8.2534668 1.37924805 8.2534668 1.44335938 9.97460938 C1.48267578 11.15861328 1.52199219 12.34261719 1.5625 13.5625 C1.60568359 14.75037109 1.64886719 15.93824219 1.69335938 17.16210938 C1.79983546 20.10794784 1.90184841 23.0538743 2 26 C2.94915283 25.97123779 3.89830566 25.94247559 4.8762207 25.9128418 C15.55428227 25.58926417 15.55428227 25.58926417 20 29 C21.328125 30.6484375 21.328125 30.6484375 22.25 32.375 C22.56453125 32.93960938 22.8790625 33.50421875 23.203125 34.0859375 C25.62796721 39.91031341 25.18360387 46.18793995 25.1875 52.375 C25.19974609 53.39078125 25.21199219 54.4065625 25.22460938 55.453125 C25.23547322 61.02989776 24.94422279 65.75276674 23 71 C22 72 22 72 18.625 72.3125 C15 72 15 72 13.28955078 70.35375977 C11.65915578 67.37787218 11.67101708 65.4100166 11.7421875 62.02734375 C11.76345703 60.30741211 11.76345703 60.30741211 11.78515625 58.55273438 C11.81480469 57.35970703 11.84445313 56.16667969 11.875 54.9375 C11.91831588 52.57168863 11.95757027 50.20579838 11.9921875 47.83984375 C12.02868408 46.26771118 12.02868408 46.26771118 12.06591797 44.66381836 C12.12740041 41.89443062 12.12740041 41.89443062 11 39 C9.20350035 37.9046469 9.20350035 37.9046469 7 38 C4.76656796 39.85055798 3.29808458 41.40383083 2 44 C1.84621148 45.95774069 1.75028537 47.92017352 1.68359375 49.8828125 C1.64169922 51.04941406 1.59980469 52.21601562 1.55664062 53.41796875 C1.49766602 55.25294922 1.49766602 55.25294922 1.4375 57.125 C1.39431641 58.35605469 1.35113281 59.58710937 1.30664062 60.85546875 C1.20031296 63.90352853 1.09828219 66.9516719 1 70 C0.34 70 -0.32 70 -1 70 C-1 70.66 -1 71.32 -1 72 C-3.64 72 -6.28 72 -9 72 C-9 71.34 -9 70.68 -9 70 C-9.66 70 -10.32 70 -11 70 C-11.11578185 61.18582412 -11.20465752 52.37190942 -11.25906086 43.5571394 C-11.28517022 39.46417089 -11.3205912 35.37172209 -11.37719727 31.27905273 C-11.43147158 27.3303192 -11.46141045 23.38208589 -11.47438622 19.43300819 C-11.48363456 17.92542963 -11.50169476 16.41787886 -11.52865028 14.91051292 C-11.56488381 12.80065862 -11.56994835 10.69287836 -11.56762695 8.58276367 C-11.57873001 7.38141281 -11.58983307 6.18006195 -11.60127258 4.94230652 C-11 2 -11 2 -8.66764832 0.07295227 C-5.34233591 -1.26451844 -3.41848536 -0.93231419 0 0 Z " fill="#6EA299" transform="translate(59,15)"/>
<path d="M0 0 C1.41441874 2.82883747 1.31900332 4.87376745 1 8 C-0.625 9.9375 -0.625 9.9375 -3 11 C-7.00000968 10.74468023 -10.34945363 9.61053516 -14 8 C-14.9327418 12.099361 -15.28825262 16.12043288 -15.5625 20.3125 C-15.64628906 21.56675781 -15.73007813 22.82101563 -15.81640625 24.11328125 C-15.90728516 25.54220703 -15.90728516 25.54220703 -16 27 C-15.06027344 26.94779297 -15.06027344 26.94779297 -14.1015625 26.89453125 C-13.28429687 26.86746094 -12.46703125 26.84039062 -11.625 26.8125 C-10.81289062 26.77769531 -10.00078125 26.74289063 -9.1640625 26.70703125 C-8.44992188 26.80371094 -7.73578125 26.90039062 -7 27 C-5 30 -5 30 -5.3125 33.625 C-6 37 -6 37 -7 38 C-9.64 38 -12.28 38 -15 38 C-15 46.58 -15 55.16 -15 64 C-15.66 64 -16.32 64 -17 64 C-17 64.66 -17 65.32 -17 66 C-23.0546875 66.1953125 -23.0546875 66.1953125 -25 66 C-27 64 -27 64 -27.22705078 61.47802734 C-27.21657715 60.4411377 -27.20610352 59.40424805 -27.1953125 58.3359375 C-27.18886719 57.21445313 -27.18242187 56.09296875 -27.17578125 54.9375 C-27.15902344 53.761875 -27.14226562 52.58625 -27.125 51.375 C-27.11597656 50.19164062 -27.10695312 49.00828125 -27.09765625 47.7890625 C-27.07402812 44.85917477 -27.04108514 41.9296866 -27 39 C-29.01822917 38.83723958 -31.03645833 38.67447917 -33.0546875 38.51171875 C-35 38 -35 38 -37 35 C-36.55555556 29.55555556 -36.55555556 29.55555556 -34 27 C-31.375 26.875 -31.375 26.875 -29 27 C-29.03480469 26.26136719 -29.06960937 25.52273437 -29.10546875 24.76171875 C-29.33269173 16.24626724 -28.97569862 8.08095811 -23.8125 1 C-15.7519791 -4.73192598 -8.73424296 -5.19895414 0 0 Z " fill="#939B53" transform="translate(169,21)"/>
<path d="M0 0 C1.45742463 -0.08096803 2.91612807 -0.13917774 4.375 -0.1875 C5.18710937 -0.22230469 5.99921875 -0.25710937 6.8359375 -0.29296875 C7.55007812 -0.19628906 8.26421875 -0.09960938 9 0 C11.28062828 3.42094242 11.21925007 4.68187222 11.125 8.6875 C11.10695313 9.68136719 11.08890625 10.67523438 11.0703125 11.69921875 C11.04710938 12.45847656 11.02390625 13.21773437 11 14 C11.9075 13.773125 12.815 13.54625 13.75 13.3125 C17 13 17 13 19.375 14 C21 16 21 16 21.375 19.5625 C21 23 21 23 19 25 C16.36 25 13.72 25 11 25 C11 33.91 11 42.82 11 52 C15.455 51.505 15.455 51.505 20 51 C22.47666082 54.71499122 22.54886514 56.60907888 22 61 C19.1710212 63.8289788 16.42108458 64.22892786 12.5625 64.4375 C8.04721696 64.2722151 5.43784961 63.0285818 2 60 C-1.35236978 55.26044273 -2.12459398 51.53851726 -2.09765625 45.80078125 C-2.09443359 44.59228516 -2.09121094 43.38378906 -2.08789062 42.13867188 C-2.07951172 40.87603516 -2.07113281 39.61339844 -2.0625 38.3125 C-2.05798828 37.03826172 -2.05347656 35.76402344 -2.04882812 34.45117188 C-2.03702873 31.30073436 -2.02056597 28.15039051 -2 25 C-4.31 25 -6.62 25 -9 25 C-10.72217143 22.36609075 -11.00455315 21.07588583 -10.8125 17.875 C-10 15 -10 15 -7 13 C-4.3125 12.875 -4.3125 12.875 -2 13 C-1.93941406 12.22914062 -1.87882812 11.45828125 -1.81640625 10.6640625 C-1.73261719 9.66117188 -1.64882813 8.65828125 -1.5625 7.625 C-1.48128906 6.62726562 -1.40007813 5.62953125 -1.31640625 4.6015625 C-1 2 -1 2 0 0 Z " fill="#CDB47B" transform="translate(23,23)"/>
<path d="M0 0 C6.0546875 -0.1953125 6.0546875 -0.1953125 8 0 C10 2 10 2 10.1953125 4.8203125 C10.17210937 5.91085938 10.14890625 7.00140625 10.125 8.125 C10.10695312 9.22070312 10.08890625 10.31640625 10.0703125 11.4453125 C10.04710937 12.28835937 10.02390625 13.13140625 10 14 C10.62648437 13.97679687 11.25296875 13.95359375 11.8984375 13.9296875 C12.71570313 13.91164063 13.53296875 13.89359375 14.375 13.875 C15.18710938 13.85179687 15.99921875 13.82859375 16.8359375 13.8046875 C19 14 19 14 21 16 C21.34490322 20.05261287 21.30163882 21.54754176 19 25 C16.03 25 13.06 25 10 25 C10.33 33.25 10.66 41.5 11 50 C13.8708247 51.17154939 13.8708247 51.17154939 16.5 50.8125 C19 51 19 51 20.8125 52.6875 C22.23011404 55.44811682 22.54893012 56.94167507 22 60 C19.68345929 62.82013652 17.0952846 63.3249043 13.625 63.875 C9.27172366 64.21811538 6.65220349 63.54804895 3 61 C-1.27639678 56.26129006 -2.12515443 53.78551934 -2.09765625 47.4609375 C-2.09443359 46.15898438 -2.09121094 44.85703125 -2.08789062 43.515625 C-2.07953466 42.13541601 -2.07106971 40.75520768 -2.0625 39.375 C-2.05748501 37.98698074 -2.0529221 36.59895978 -2.04882812 35.2109375 C-2.03700976 31.80724868 -2.02053434 28.40364561 -2 25 C-3.670625 25.061875 -3.670625 25.061875 -5.375 25.125 C-9 25 -9 25 -11 23 C-11.26991906 20.31160615 -11.08737357 17.70858064 -11 15 C-7.53785351 12.94835763 -6.40610765 13 -2 13 C-2 9.37 -2 5.74 -2 2 C-1.34 2 -0.68 2 0 2 C0 1.34 0 0.68 0 0 Z " fill="#8BBAAF" transform="translate(177,23)"/>
<path d="M0 0 C3.71483142 3.08251969 5.77352288 5.18818303 6.375 10 C6.33092442 15.25601234 3.478172 19.51676156 1 24 C0.32701751 25.33015668 -0.34195714 26.66238951 -1 28 C-0.67 28.33 -0.34 28.66 0 29 C0.12601286 32.07910525 0.188696 35.13454393 0.203125 38.21484375 C0.20882507 39.14091934 0.21452515 40.06699493 0.22039795 41.02113342 C0.22986251 42.98404797 0.23638769 44.94697851 0.24023438 46.90991211 C0.24994788 49.92134123 0.28096065 52.9320904 0.3125 55.94335938 C0.31902885 57.84635009 0.32427979 59.74934572 0.328125 61.65234375 C0.3404718 62.55758286 0.3528186 63.46282196 0.36553955 64.39549255 C0.36253845 65.23298538 0.35953735 66.07047821 0.35644531 66.93334961 C0.36009094 67.67201767 0.36373657 68.41068573 0.36749268 69.17173767 C0 71 0 71 -3 73 C-6 73.375 -6 73.375 -9 73 C-11.80973348 70.48856862 -12.0103849 68.89580486 -12.38818359 65.10522461 C-12.40792657 63.53771826 -12.41031979 61.9699294 -12.3984375 60.40234375 C-12.40274277 59.15633141 -12.40274277 59.15633141 -12.40713501 57.88514709 C-12.40917297 56.13265296 -12.40366181 54.38013594 -12.39111328 52.62768555 C-12.37503493 49.9433319 -12.39098087 47.2604792 -12.41015625 44.57617188 C-12.40817417 42.87239251 -12.40433122 41.16861408 -12.3984375 39.46484375 C-12.40451019 38.66167221 -12.41058289 37.85850067 -12.4168396 37.0309906 C-12.34638778 31.46090759 -12.34638778 31.46090759 -10.47509766 28.97094727 C-9.98831543 28.65053467 -9.5015332 28.33012207 -9 28 C-9.49371094 27.31035156 -9.98742187 26.62070312 -10.49609375 25.91015625 C-14.44056903 20.12439673 -17.71613612 15.20348682 -17 8 C-15.75064779 4.03146944 -14.68025091 2.49041345 -11.3125 0.0625 C-7.19741608 -1.25743258 -4.10496007 -1.41055212 0 0 Z M-10 9 C-9.71016731 12.30683466 -9.71016731 12.30683466 -8 15 C-5.54190002 15.2500773 -5.54190002 15.2500773 -3 15 C-2.34 14.34 -1.68 13.68 -1 13 C-1.28983269 9.69316534 -1.28983269 9.69316534 -3 7 C-6.961168 6.60909667 -6.961168 6.60909667 -10 9 Z " fill="#7FACA4" transform="translate(131,14)"/>
<path d="M0 0 C2.17320501 0.02065784 3.97879598 0.14618784 6.07421875 0.73828125 C8.59249572 1.28990382 10.52297282 0.96162446 13.0625 0.5625 C16.53317539 0.15869535 17.84923259 0.06685176 21.125 1.5 C25.08745307 4.84331977 25.08745307 4.84331977 25.5 8.625 C25.125 12.1875 25.125 12.1875 23.5 14.1875 C20.3171422 15.52765065 18.43827093 15.01581773 15.125 14.1875 C14.34125 14.001875 13.5575 13.81625 12.75 13.625 C12.21375 13.480625 11.6775 13.33625 11.125 13.1875 C8.11200717 18.03448847 7.00844752 21.39688743 6.9140625 27.09765625 C6.88570312 28.25201172 6.85734375 29.40636719 6.828125 30.59570312 C6.77596149 33.03565133 6.7317145 35.47578139 6.6953125 37.91601562 C6.664375 39.06908203 6.6334375 40.22214844 6.6015625 41.41015625 C6.58174316 42.46984619 6.56192383 43.52953613 6.54150391 44.62133789 C6.40405762 45.46817139 6.26661133 46.31500488 6.125 47.1875 C2.65576119 49.50032587 1.20294425 49.61228586 -2.875 49.1875 C-4.95136325 47.63070826 -5.77178156 46.74402939 -6.2492218 44.16978455 C-6.24859238 43.40082352 -6.24796295 42.63186249 -6.24731445 41.83959961 C-6.25354324 40.9653685 -6.25977203 40.09113739 -6.26618958 39.19041443 C-6.25697983 38.2497261 -6.24777008 37.30903778 -6.23828125 36.33984375 C-6.23877975 35.37220596 -6.23927826 34.40456818 -6.23979187 33.40760803 C-6.23745144 31.36245672 -6.22772478 29.31730253 -6.21118164 27.2722168 C-6.1875654 24.13369134 -6.19062388 20.99601372 -6.19726562 17.85742188 C-6.19168978 15.87239075 -6.18458049 13.88736321 -6.17578125 11.90234375 C-6.17669266 10.9596312 -6.17760406 10.01691864 -6.17854309 9.04563904 C-6.16901108 8.17456009 -6.15947906 7.30348114 -6.1496582 6.40600586 C-6.14505081 5.63784042 -6.14044342 4.86967499 -6.13569641 4.07823181 C-5.58586726 0.09053031 -3.72687219 0.18033253 0 0 Z " fill="#8FBDB1" transform="translate(92.875,37.8125)"/>
<path d="M0 0 C0.99 0.5259375 0.99 0.5259375 2 1.0625 C6.0513091 2.32853409 8.83374555 1.70614482 13 1 C13.33 3.31 13.66 5.62 14 8 C15.32 8 16.64 8 18 8 C18 7.01 18 6.02 18 5 C19.32 5 20.64 5 22 5 C21.76288008 7.60831914 21.52477362 10.2164867 21.28125 12.82421875 C21.09481925 14.92933269 20.92791142 17.03627331 20.78125 19.14453125 C20.7090625 20.12808594 20.636875 21.11164063 20.5625 22.125 C20.50191406 23.03507812 20.44132812 23.94515625 20.37890625 24.8828125 C20.19134766 25.93082031 20.19134766 25.93082031 20 27 C19.34 27.33 18.68 27.66 18 28 C16.86649466 30.01669827 16.86649466 30.01669827 16 32 C10.45565656 31.50716947 5.79392083 29.89582941 0.6015625 27.921875 C-2.2446855 26.91329463 -4.99807841 26.32453206 -8 26 C-7.24948454 19.62061856 -7.24948454 19.62061856 -6.0546875 16.6484375 C-4.50411622 12.75478073 -3.70686102 8.72426244 -2.78125 4.64453125 C-2 2 -2 2 0 0 Z M3 11 C1.76471482 12.03424909 1.76471482 12.03424909 1.6875 14.25 C2.09354674 17.82321129 3.61367451 19.3899565 6 22 C9.78383679 21.07506212 11.56693694 20.60628829 13.875 17.375 C14.24625 16.59125 14.6175 15.8075 15 15 C13.88625 14.896875 12.7725 14.79375 11.625 14.6875 C9.830625 14.3471875 9.830625 14.3471875 8 14 C7.34 13.01 6.68 12.02 6 11 C5.01 11 4.02 11 3 11 Z " fill="#C3B27C" transform="translate(273,62)"/>
<path d="M0 0 C0.9075 0.0825 1.815 0.165 2.75 0.25 C2.75 1.24 2.75 2.23 2.75 3.25 C1.76 3.25 0.77 3.25 -0.25 3.25 C-0.25 4.57 -0.25 5.89 -0.25 7.25 C-2.86941217 8.99627478 -4.28824877 9.63722388 -7.25 10.25 C-7.25 9.59 -7.25 8.93 -7.25 8.25 C-8.9 8.58 -10.55 8.91 -12.25 9.25 C-12.50394531 10.3121875 -12.75789063 11.374375 -13.01953125 12.46875 C-14.73927086 19.56225684 -16.43540524 26.49497259 -19.25 33.25 C-18.60933594 33.28738281 -17.96867187 33.32476562 -17.30859375 33.36328125 C-11.65440029 33.79303366 -7.4575067 34.89188376 -2.25 37.25 C0.07189536 37.6554103 2.40515344 38.01072994 4.75 38.25 C5.41 36.93 6.07 35.61 6.75 34.25 C7.41 34.25 8.07 34.25 8.75 34.25 C8.48521851 33.39390137 8.48521851 33.39390137 8.21508789 32.52050781 C7.70900817 30.04988241 7.86722274 28.39355265 8.30859375 25.921875 C8.44716797 25.12265625 8.58574219 24.3234375 8.72851562 23.5 C8.87998047 22.675 9.03144531 21.85 9.1875 21 C9.33509766 20.15953125 9.48269531 19.3190625 9.63476562 18.453125 C9.9991936 16.38411456 10.37362541 14.31687061 10.75 12.25 C9.43 12.25 8.11 12.25 6.75 12.25 C6.75 13.24 6.75 14.23 6.75 15.25 C5.43 15.25 4.11 15.25 2.75 15.25 C2.75 13.6 2.75 11.95 2.75 10.25 C2.09 9.92 1.43 9.59 0.75 9.25 C2.07 9.25 3.39 9.25 4.75 9.25 C4.42 7.27 4.09 5.29 3.75 3.25 C5.6875 3.9375 5.6875 3.9375 7.75 5.25 C8.5 7.875 8.5 7.875 8.75 10.25 C10.73 10.91 12.71 11.57 14.75 12.25 C14.60950482 13.72968324 14.46245174 15.20874516 14.3125 16.6875 C14.23128906 17.51121094 14.15007812 18.33492187 14.06640625 19.18359375 C13.75 21.25 13.75 21.25 12.75 22.25 C12.47873327 23.63674224 12.26018945 25.03391959 12.06640625 26.43359375 C11.94330078 27.27857422 11.82019531 28.12355469 11.69335938 28.99414062 C11.44007082 30.78534535 11.1900539 32.57701584 10.94335938 34.36914062 C10.81896484 35.21541016 10.69457031 36.06167969 10.56640625 36.93359375 C10.45756104 37.71275146 10.34871582 38.49190918 10.23657227 39.29467773 C9.75 41.25 9.75 41.25 7.75 43.25 C5.74072266 43.10009766 5.74072266 43.10009766 3.2890625 42.5390625 C2.39348633 42.33829102 1.49791016 42.13751953 0.57519531 41.93066406 C-0.35711914 41.70604492 -1.28943359 41.48142578 -2.25 41.25 C-3.13848633 41.03827148 -4.02697266 40.82654297 -4.94238281 40.60839844 C-7.59095984 39.96351905 -10.23346474 39.29810232 -12.875 38.625 C-13.78378906 38.39554688 -14.69257813 38.16609375 -15.62890625 37.9296875 C-17.83650161 37.3719792 -20.0435096 36.81206087 -22.25 36.25 C-23.32588328 31.45742902 -23.33395854 28.56298431 -21.15380859 24.12451172 C-20.16324819 22.07007552 -19.3987941 19.9997017 -18.64453125 17.84765625 C-18.25297852 16.73100586 -18.25297852 16.73100586 -17.85351562 15.59179688 C-17.46196289 14.46354492 -17.46196289 14.46354492 -17.0625 13.3125 C-16.78986328 12.53326172 -16.51722656 11.75402344 -16.23632812 10.95117188 C-15.57204026 9.05154165 -14.91070999 7.1508776 -14.25 5.25 C-13.13753906 5.12753906 -12.02507812 5.00507812 -10.87890625 4.87890625 C-7.2050497 4.60103342 -7.2050497 4.60103342 -5.1875 2.1875 C-3.25 0.25 -3.25 0.25 0 0 Z " fill="#91AA92" transform="translate(284.25,54.75)"/>
<path d="M0 0 C0.07402368 5.65996416 0.12854173 11.31964811 0.16479492 16.97998047 C0.17990395 18.90646267 0.20039214 20.83291035 0.22631836 22.75927734 C0.26260925 25.52450057 0.27970479 28.28927004 0.29296875 31.0546875 C0.30845261 31.9193161 0.32393646 32.7839447 0.33988953 33.67477417 C0.34057617 36.10107422 0.34057617 36.10107422 0 40 C-3.4352048 42.29013653 -4.985331 42.17842973 -9 42 C-10.16661952 37.83595236 -10.12576063 33.8101932 -10.09765625 29.515625 C-10.0962413 28.70003113 -10.09482635 27.88443726 -10.09336853 27.04412842 C-10.08778303 24.44604788 -10.07523321 21.84805437 -10.0625 19.25 C-10.05748312 17.48567833 -10.05292054 15.72135531 -10.04882812 13.95703125 C-10.03781835 9.63798744 -10.02056369 5.31900846 -10 1 C-3.375 -1.125 -3.375 -1.125 0 0 Z " fill="#90994D" transform="translate(131,45)"/>
<path d="M0 0 C3.91743933 2.31551247 6.57318727 4.79766352 8.4140625 9.0546875 C8.4140625 9.7146875 8.4140625 10.3746875 8.4140625 11.0546875 C5.4140625 10.0546875 5.4140625 10.0546875 3.4140625 8.0546875 C4.4140625 9.0546875 4.4140625 9.0546875 4.4140625 12.0546875 C3.7746875 12.3228125 3.1353125 12.5909375 2.4765625 12.8671875 C0.08274564 13.94136502 0.08274564 13.94136502 -0.5859375 17.0546875 C-4.5459375 17.5496875 -4.5459375 17.5496875 -8.5859375 18.0546875 C-8.5859375 19.3746875 -8.5859375 20.6946875 -8.5859375 22.0546875 C-10.2359375 21.7246875 -11.8859375 21.3946875 -13.5859375 21.0546875 C-12.5959375 20.7246875 -11.6059375 20.3946875 -10.5859375 20.0546875 C-9.85269954 18.03960392 -9.85269954 18.03960392 -9.5859375 16.0546875 C-7.2759375 16.0546875 -4.9659375 16.0546875 -2.5859375 16.0546875 C-3.50376874 13.4096838 -3.50376874 13.4096838 -5.5859375 11.0546875 C-11.02607221 10.33002117 -11.02607221 10.33002117 -15.7734375 12.5546875 C-16.3715625 13.0496875 -16.9696875 13.5446875 -17.5859375 14.0546875 C-21.36154537 14.51512748 -22.32830528 14.22644231 -25.5859375 12.0546875 C-26.5859375 9.8046875 -26.5859375 9.8046875 -26.5859375 7.0546875 C-20.64710697 -1.85355829 -10.03986905 -3.67016361 0 0 Z " fill="#90BEB2" transform="translate(297.5859375,37.9453125)"/>
<path d="M0 0 C0.66 0 1.32 0 2 0 C4 3 4 3 4 6 C4.99 6.33 5.98 6.66 7 7 C10.18551319 15.21527085 9.1579908 22.67632118 7 31 C5.35 31.33 3.7 31.66 2 32 C1.67 33.98 1.34 35.96 1 38 C-1.97 38.495 -1.97 38.495 -5 39 C-5.2475 38.360625 -5.495 37.72125 -5.75 37.0625 C-6.81562433 34.81258459 -6.81562433 34.81258459 -9.125 34.25 C-9.74375 34.1675 -10.3625 34.085 -11 34 C-10.01 33.505 -10.01 33.505 -9 33 C-9.99 32.34 -10.98 31.68 -12 31 C-8.535 30.505 -8.535 30.505 -5 30 C-2.65079126 25.31113215 -2.56954075 20.8225651 -2.375 15.6875 C-2.31699219 14.43356445 -2.31699219 14.43356445 -2.2578125 13.15429688 C-2.16404841 11.10320741 -2.08095755 9.05163485 -2 7 C-1.34 7 -0.68 7 0 7 C-0.66 5.35 -1.32 3.7 -2 2 C-1.34 1.34 -0.68 0.68 0 0 Z " fill="#8D934A" transform="translate(342,44)"/>
<path d="M0 0 C0.66 0 1.32 0 2 0 C2 0.66 2 1.32 2 2 C2.680625 1.814375 3.36125 1.62875 4.0625 1.4375 C7.57232191 0.91476057 10.52188063 1.38621423 14 2 C14 3.32 14 4.64 14 6 C15.32 6 16.64 6 18 6 C18 5.01 18 4.02 18 3 C19.32 3 20.64 3 22 3 C21.76288008 5.60831914 21.52477362 8.2164867 21.28125 10.82421875 C21.09481925 12.92933269 20.92791142 15.03627331 20.78125 17.14453125 C20.7090625 18.12808594 20.636875 19.11164063 20.5625 20.125 C20.50191406 21.03507812 20.44132812 21.94515625 20.37890625 22.8828125 C20.19134766 23.93082031 20.19134766 23.93082031 20 25 C19.34 25.33 18.68 25.66 18 26 C17.67 26.99 17.34 27.98 17 29 C13.66666667 28.33333333 10.33333333 27.66666667 7 27 C7.33 26.01 7.66 25.02 8 24 C8.969375 23.525625 9.93875 23.05125 10.9375 22.5625 C13.99143199 21.28419054 13.99143199 21.28419054 15.375 19.1875 C16.17923344 16.37268298 16.19408479 13.91127187 16 11 C14.03177114 9.03177114 10.65191291 9.33751619 8 9 C8 8.01 8 7.02 8 6 C5.03 6 2.06 6 -1 6 C-1.042721 4.33388095 -1.04063832 2.66617115 -1 1 C-0.67 0.67 -0.34 0.34 0 0 Z " fill="#BAB181" transform="translate(273,64)"/>
<path d="M0 0 C2.64233769 2.19257809 4.46669809 3.93339618 6 7 C6.04022391 9.3329866 6.04320247 11.66706666 6 14 C5.67 14 5.34 14 5 14 C4.67 12.35 4.34 10.7 4 9 C3.01 9.66 2.02 10.32 1 11 C0.67 10.01 0.34 9.02 0 8 C-2.64 8 -5.28 8 -8 8 C-9.00217064 11.58327753 -9.00217064 11.58327753 -8 15 C-10 17 -12 19 -14 21 C-16.60283061 16.10667844 -17.49648447 12.60766553 -16.6484375 7.0859375 C-15.61548562 3.76306821 -13.71511832 2.06866158 -11 0 C-7.15130459 -1.28289847 -3.85190651 -1.11877986 0 0 Z " fill="#7AA79C" transform="translate(131,14)"/>
<path d="M0 0 C3.39914975 1.13304992 4.05254451 2.12518475 6 5 C5.67 5.66 5.34 6.32 5 7 C0.545 7.495 0.545 7.495 -4 8 C-3.67 21.2 -3.34 34.4 -3 48 C-6.3635827 44.6364173 -6.35941816 43.50282931 -6.4168396 38.94335938 C-6.41076691 38.13705078 -6.40469421 37.33074219 -6.3984375 36.5 C-6.40130768 35.66791016 -6.40417786 34.83582031 -6.40713501 33.97851562 C-6.40917562 32.22004516 -6.40364593 30.46155199 -6.39111328 28.703125 C-6.37505902 26.00990087 -6.39096145 23.3181774 -6.41015625 20.625 C-6.40817382 18.91666335 -6.40433014 17.20832764 -6.3984375 15.5 C-6.40451019 14.69369141 -6.41058289 13.88738281 -6.4168396 13.05664062 C-6.34551981 7.39359111 -6.34551981 7.39359111 -4.47573853 5.26367188 C-3.98874481 4.84666016 -3.5017511 4.42964844 -3 4 C-3.33 3.01 -3.66 2.02 -4 1 C-2.68 1.33 -1.36 1.66 0 2 C0 1.34 0 0.68 0 0 Z " fill="#A5AB79" transform="translate(125,38)"/>
<path d="M0 0 C3.27723056 1.05339554 4.60460094 2.63763259 6.3125 5.5 C6.869375 6.655 7.42625 7.81 8 9 C7.67 9.66 7.34 10.32 7 11 C5 10 5 10 3.875 6.9375 C3.58625 5.968125 3.2975 4.99875 3 4 C1.35444301 5.22809091 1.35444301 5.22809091 0 7 C0.22757731 9.16299211 0.22757731 9.16299211 1 11 C0.34 11 -0.32 11 -1 11 C-0.97679687 12.24136719 -0.95359375 13.48273437 -0.9296875 14.76171875 C-0.91092269 16.4036398 -0.89272325 18.04556738 -0.875 19.6875 C-0.84986328 20.91243164 -0.84986328 20.91243164 -0.82421875 22.16210938 C-0.78865413 26.55433977 -0.88289781 30.02455255 -3 34 C-4.58272601 35.58272601 -6.38034003 35.34735747 -8.5625 35.5625 C-9.38878906 35.64628906 -10.21507812 35.73007813 -11.06640625 35.81640625 C-11.70449219 35.87699219 -12.34257812 35.93757813 -13 36 C-13.495 34.515 -13.495 34.515 -14 33 C-11.36 33 -8.72 33 -6 33 C-2.80923583 26.12661472 -3.03397922 17.27427689 -5 10 C-5.66 9.67 -6.32 9.34 -7 9 C-6.34 8.67 -5.68 8.34 -5 8 C-4.67 7.01 -4.34 6.02 -4 5 C-3.0206121 3.97980427 -2.02104551 2.97850195 -1 2 C-0.67 1.34 -0.34 0.68 0 0 Z " fill="#969C5A" transform="translate(341,40)"/>
<path d="M0 0 C2.4375 0.1875 2.4375 0.1875 3.4375 1.1875 C4.571875 1.331875 5.70625 1.47625 6.875 1.625 C10.4375 2.1875 10.4375 2.1875 12.4375 4.1875 C13.1875 6.9375 13.1875 6.9375 12.4375 10.1875 C8.97592512 13.1001311 4.90637105 16.30485831 0.21875 16.08203125 C-2.13870067 14.89813607 -2.47608423 13.90957328 -3.3125 11.4375 C-4.35077187 8.27162185 -5.05520523 5.53789559 -4.5625 2.1875 C-2.5625 0.1875 -2.5625 0.1875 0 0 Z M-1.5625 2.1875 C-2.79778518 3.22174909 -2.79778518 3.22174909 -2.875 5.4375 C-2.46895326 9.01071129 -0.94882549 10.5774565 1.4375 13.1875 C5.22133679 12.26256212 7.00443694 11.79378829 9.3125 8.5625 C9.68375 7.77875 10.055 6.995 10.4375 6.1875 C9.32375 6.084375 8.21 5.98125 7.0625 5.875 C5.268125 5.5346875 5.268125 5.5346875 3.4375 5.1875 C2.7775 4.1975 2.1175 3.2075 1.4375 2.1875 C0.4475 2.1875 -0.5425 2.1875 -1.5625 2.1875 Z " fill="#8FAD88" transform="translate(277.5625,70.8125)"/>
<path d="M0 0 C1.9375 0.6875 1.9375 0.6875 4 2 C4.75 4.625 4.75 4.625 5 7 C6.98 7.66 8.96 8.32 11 9 C10.85950482 10.47968324 10.71245174 11.95874516 10.5625 13.4375 C10.48128906 14.26121094 10.40007812 15.08492187 10.31640625 15.93359375 C10 18 10 18 9 19 C8.60430892 21.01311449 8.25747809 23.03597208 7.9375 25.0625 C7.76089844 26.16722656 7.58429688 27.27195312 7.40234375 28.41015625 C7.26957031 29.26480469 7.13679688 30.11945313 7 31 C6.34 31 5.68 31 5 31 C4.06020618 27.96143341 4.00124192 25.79304528 4.55859375 22.671875 C4.69716797 21.87265625 4.83574219 21.0734375 4.97851562 20.25 C5.20571289 19.0125 5.20571289 19.0125 5.4375 17.75 C5.58509766 16.90953125 5.73269531 16.0690625 5.88476562 15.203125 C6.2491936 13.13411456 6.62362541 11.06687061 7 9 C5.68 9 4.36 9 3 9 C3 9.99 3 10.98 3 12 C1.68 12 0.36 12 -1 12 C-1 10.35 -1 8.7 -1 7 C-1.66 6.67 -2.32 6.34 -3 6 C-1.68 6 -0.36 6 1 6 C0.67 4.02 0.34 2.04 0 0 Z " fill="#7CA58A" transform="translate(288,58)"/>
<path d="M0 0 C0.33 0 0.66 0 1 0 C1.25528048 3.58197404 1.47465688 7.16527379 1.6875 10.75 C1.76033203 11.76578125 1.83316406 12.7815625 1.90820312 13.828125 C1.96298828 14.8078125 2.01777344 15.7875 2.07421875 16.796875 C2.13182373 17.69760742 2.18942871 18.59833984 2.2487793 19.52636719 C1.94335563 22.56321959 1.14794835 23.85731243 -1 26 C-4.1875 26.25 -4.1875 26.25 -7 26 C-7.66 24.68 -8.32 23.36 -9 22 C-9.66 22 -10.32 22 -11 22 C-11 20.35 -11 18.7 -11 17 C-10.67 17.66 -10.34 18.32 -10 19 C-9.34 19 -8.68 19 -8 19 C-8 19.66 -8 20.32 -8 21 C-4.83884224 19.63016497 -4.0072908 19.0109362 -2 16 C-1.54229325 13.25658482 -1.16908662 10.57257529 -0.875 7.8125 C-0.74544922 6.68811523 -0.74544922 6.68811523 -0.61328125 5.54101562 C-0.40161618 3.69482588 -0.19984536 1.84750656 0 0 Z " fill="#8DB4AA" transform="translate(307,61)"/>
<path d="M0 0 C1.43836751 0.11458693 2.87570966 0.24209116 4.3125 0.375 C5.51326172 0.47941406 5.51326172 0.47941406 6.73828125 0.5859375 C9 1 9 1 12 3 C11.67 3.66 11.34 4.32 11 5 C10.34 5 9.68 5 9 5 C9 7.31 9 9.62 9 12 C8.34 12 7.68 12 7 12 C7 12.66 7 13.32 7 14 C7.99 14.66 8.98 15.32 10 16 C10.11027233 18.79257231 10.05024404 21.2984254 9.8125 24.0625 C9.76802734 24.80822266 9.72355469 25.55394531 9.67773438 26.32226562 C9.53788789 28.22314198 9.27773435 30.11432994 9 32 C8.01 32.495 8.01 32.495 7 33 C6.93941406 31.97519531 6.87882813 30.95039062 6.81640625 29.89453125 C6.73194974 28.53384305 6.64730433 27.17316657 6.5625 25.8125 C6.52318359 25.13896484 6.48386719 24.46542969 6.44335938 23.77148438 C6.10792733 18.32433764 6.10792733 18.32433764 5 13 C4.34 12.67 3.68 12.34 3 12 C3.33 11.67 3.66 11.34 4 11 C4 9.865625 4 8.73125 4 7.5625 C4 4 4 4 5 2 C3.35 1.67 1.7 1.34 0 1 C0 0.67 0 0.34 0 0 Z " fill="#D0BA85" transform="translate(219,39)"/>
<path d="M0 0 C1.134375 0.020625 2.26875 0.04125 3.4375 0.0625 C3.80875 1.01125 4.18 1.96 4.5625 2.9375 C6.17745905 6.31803808 6.17745905 6.31803808 9.625 7.4375 C10.553125 7.64375 11.48125 7.85 12.4375 8.0625 C11.7775 9.3825 11.1175 10.7025 10.4375 12.0625 C7.96949953 10.91076645 6.38966435 10.01466435 4.4375 8.0625 C3.4475 8.3925 2.4575 8.7225 1.4375 9.0625 C-1.25 8.625 -1.25 8.625 -3.5625 8.0625 C-3.94313221 5.7364143 -4.27519945 3.40194736 -4.5625 1.0625 C-3.5625 0.0625 -3.5625 0.0625 0 0 Z " fill="#81B3A8" transform="translate(171.5625,36.9375)"/>
<path d="M0 0 C0.99 0.33 1.98 0.66 3 1 C3.144375 2.216875 3.28875 3.43375 3.4375 4.6875 C3.73881661 7.15043576 4.10773279 9.50634412 4.625 11.9375 C4.74875 12.618125 4.8725 13.29875 5 14 C4 15 4 15 2.15234375 15.09765625 C0.1015625 15.06510417 -1.94921875 15.03255208 -4 15 C-3.43179252 9.54520815 -2.05362055 5.08940744 0 0 Z " fill="#CEAC6E" transform="translate(269,73)"/>
<path d="M0 0 C0 1.32 0 2.64 0 4 C-1.98 4 -3.96 4 -6 4 C-6 4.66 -6 5.32 -6 6 C-6.99 6.495 -6.99 6.495 -8 7 C-8.95220595 10.48886109 -9.17553474 13.91724546 -9.31640625 17.51953125 C-9.35830078 18.54111328 -9.40019531 19.56269531 -9.44335938 20.61523438 C-9.48267578 21.67033203 -9.52199219 22.72542969 -9.5625 23.8125 C-9.60568359 24.88693359 -9.64886719 25.96136719 -9.69335938 27.06835938 C-9.79910983 29.71212082 -9.90120233 32.3559711 -10 35 C-10.33 35 -10.66 35 -11 35 C-11.04944705 30.49765627 -11.08574161 25.9954707 -11.10986328 21.49291992 C-11.11991935 19.96131639 -11.133566 18.42973205 -11.15087891 16.89819336 C-11.17514498 14.69640364 -11.18648688 12.49486781 -11.1953125 10.29296875 C-11.20563507 9.60849167 -11.21595764 8.92401459 -11.22659302 8.21879578 C-11.22745382 4.56938339 -11.08567666 3.12851498 -9 0 C-5.52176885 -1.15941038 -3.54104422 -0.70820884 0 0 Z " fill="#ABAF83" transform="translate(323,36)"/>
<path d="M0 0 C0.66 0 1.32 0 2 0 C4 3 4 3 4 6 C4.99 6.33 5.98 6.66 7 7 C7 8.65 7 10.3 7 12 C5 12 3 12 1 12 C1 12.66 1 13.32 1 14 C0.34 14 -0.32 14 -1 14 C-1.33 14.99 -1.66 15.98 -2 17 C-2 13.7 -2 10.4 -2 7 C-1.34 7 -0.68 7 0 7 C-0.66 5.35 -1.32 3.7 -2 2 C-1.34 1.34 -0.68 0.68 0 0 Z " fill="#8A9043" transform="translate(342,44)"/>
<path d="M0 0 C1.23105469 -0.00515625 2.46210938 -0.0103125 3.73046875 -0.015625 C6.8125 0.25 6.8125 0.25 8.8125 2.25 C5.88605897 3.10603377 3.41403173 3.30863991 0.375 3.1875 C-5.10208445 3.13362704 -9.1074357 4.47216269 -13.1875 8.25 C-13.1875 11.35551666 -12.6481285 12.60261084 -11.1875 15.25 C-13.625 14.5625 -13.625 14.5625 -16.1875 13.25 C-17.3125 11 -17.3125 11 -17.1875 8.25 C-12.58720604 1.34955906 -8.30440628 -0.03500277 0 0 Z " fill="#A1C3BA" transform="translate(288.1875,36.75)"/>
<path d="M0 0 C0.99 0 1.98 0 3 0 C3.125 5.75 3.125 5.75 2 8 C-0.97 8 -3.94 8 -7 8 C-7 15.92 -7 23.84 -7 32 C-7.33 32 -7.66 32 -8 32 C-8.33 23.42 -8.66 14.84 -9 6 C-6.03 5.01 -3.06 4.02 0 3 C0 2.01 0 1.02 0 0 Z " fill="#A5C9BF" transform="translate(194,40)"/>
<path d="M0 0 C0.33 0 0.66 0 1 0 C1.0580476 3.27075883 1.09361165 6.54138524 1.125 9.8125 C1.14175781 10.74126953 1.15851563 11.67003906 1.17578125 12.62695312 C1.18222656 13.51962891 1.18867188 14.41230469 1.1953125 15.33203125 C1.20578613 16.15421143 1.21625977 16.9763916 1.22705078 17.82348633 C1 20 1 20 -1 23 C-4.04268918 23.85989042 -6.11147835 24.28917341 -9.1484375 23.30078125 C-11 22 -11 22 -11.609375 19.8359375 C-11.65578125 19.02382812 -11.7021875 18.21171875 -11.75 17.375 C-11.80671875 16.55773437 -11.8634375 15.74046875 -11.921875 14.8984375 C-11.94765625 14.27195312 -11.9734375 13.64546875 -12 13 C-11.67 14.32 -11.34 15.64 -11 17 C-10.34 17 -9.68 17 -9 17 C-9 18.32 -9 19.64 -9 21 C-8.01 20.67 -7.02 20.34 -6 20 C-5.67 19.34 -5.34 18.68 -5 18 C-4.01 18.33 -3.02 18.66 -2 19 C-2 15.7 -2 12.4 -2 9 C-1.34 9 -0.68 9 0 9 C0 6.03 0 3.06 0 0 Z " fill="#A9AD76" transform="translate(324,85)"/>
<path d="M0 0 C1.32 0.33 2.64 0.66 4 1 C4 1.66 4 2.32 4 3 C4.66 3.598125 5.32 4.19625 6 4.8125 C8 7 8 7 8.25 9.75 C8.1675 10.4925 8.085 11.235 8 12 C6.68 11.01 5.36 10.02 4 9 C4 9.66 4 10.32 4 11 C2.02 10.34 0.04 9.68 -2 9 C-2.33 7.02 -2.66 5.04 -3 3 C-2.34 3 -1.68 3 -1 3 C-0.67 2.01 -0.34 1.02 0 0 Z " fill="#689C93" transform="translate(121,29)"/>
<path d="M0 0 C0.99 0.5259375 0.99 0.5259375 2 1.0625 C6.0513091 2.32853409 8.83374555 1.70614482 13 1 C13.33 1.99 13.66 2.98 14 4 C10.04 4 6.08 4 2 4 C2 3.34 2 2.68 2 2 C1.01 2.495 1.01 2.495 0 3 C-0.65555119 5.52733235 -0.65555119 5.52733235 -1 8 C1.97 8 4.94 8 8 8 C7.67 8.66 7.34 9.32 7 10 C6.195625 9.979375 5.39125 9.95875 4.5625 9.9375 C2.06645115 9.70366379 2.06645115 9.70366379 1 11 C0.95907063 13.33297433 0.95758277 15.66705225 1 18 C0.34 17.67 -0.32 17.34 -1 17 C-1 15.35 -1 13.7 -1 12 C-1.99 11.67 -2.98 11.34 -4 11 C-3.71758359 9.53984709 -3.42373386 8.08190207 -3.125 6.625 C-2.96257812 5.81289062 -2.80015625 5.00078125 -2.6328125 4.1640625 C-2 2 -2 2 0 0 Z " fill="#AFAD7D" transform="translate(273,62)"/>
<path d="M0 0 C0.33 1.65 0.66 3.3 1 5 C-2.47264338 7.31509559 -4.88407008 7.62582455 -9 8 C-9.66 7.67 -10.32 7.34 -11 7 C-11 5.35 -11 3.7 -11 2 C-7.17679443 0.57741188 -4.08718695 -0.24042276 0 0 Z " fill="#526371" transform="translate(69,97)"/>
<path d="M0 0 C0 1.65 0 3.3 0 5 C-7.21225383 8.25601751 -7.21225383 8.25601751 -10.5 7.1875 C-10.995 6.795625 -11.49 6.40375 -12 6 C-12 5.01 -12 4.02 -12 3 C-11.34 3 -10.68 3 -10 3 C-10 2.34 -10 1.68 -10 1 C-3.71428571 -1.42857143 -3.71428571 -1.42857143 0 0 Z " fill="#62717E" transform="translate(53,102)"/>
<path d="M0 0 C2.3125 -0.3125 2.3125 -0.3125 5 0 C8.32472595 3.78330883 8.28730852 7.11575508 8 12 C7.67 12 7.34 12 7 12 C6.67 10.35 6.34 8.7 6 7 C5.01 7.66 4.02 8.32 3 9 C2.67 8.01 2.34 7.02 2 6 C-2.02130715 5.72364839 -2.02130715 5.72364839 -6 6 C-8.05270463 7.84188612 -8.05270463 7.84188612 -9 10 C-10.125 6.25 -10.125 6.25 -9 4 C-6.03 4 -3.06 4 0 4 C0 2.68 0 1.36 0 0 Z " fill="#6A9C91" transform="translate(129,16)"/>
<path d="M0 0 C1.51400391 0.01740234 1.51400391 0.01740234 3.05859375 0.03515625 C4.07050781 0.04417969 5.08242187 0.05320312 6.125 0.0625 C7.29869141 0.07990234 7.29869141 0.07990234 8.49609375 0.09765625 C8.49609375 2.07765625 8.49609375 4.05765625 8.49609375 6.09765625 C4.86609375 6.09765625 1.23609375 6.09765625 -2.50390625 6.09765625 C-2.83390625 4.44765625 -3.16390625 2.79765625 -3.50390625 1.09765625 C-2.50390625 0.09765625 -2.50390625 0.09765625 0 0 Z " fill="#334859" transform="translate(178.50390625,114.90234375)"/>
<path d="M0 0 C4.05606165 0.46800711 7.46588679 0.87953208 11 3 C10.67 4.65 10.34 6.3 10 8 C6.0507432 7.44894091 2.65079826 6.61064629 -1 5 C-0.67 3.35 -0.34 1.7 0 0 Z " fill="#546471" transform="translate(143,107)"/>
<path d="M0 0 C-0.25 2.375 -0.25 2.375 -1 5 C-4.11609628 7.42363044 -7.17372685 7.17392151 -11 7 C-11.33 5.68 -11.66 4.36 -12 3 C-5.0625 -1.19901316 -5.0625 -1.19901316 0 0 Z " fill="#536272" transform="translate(204,112)"/>
<path d="M0 0 C0.80566406 0.09023437 1.61132812 0.18046875 2.44140625 0.2734375 C4.4375 0.625 4.4375 0.625 5.4375 1.625 C5.47813832 3.29117115 5.480221 4.95888095 5.4375 6.625 C-1.86684783 6.99021739 -1.86684783 6.99021739 -5.0625 5.3125 C-6.5625 3.625 -6.5625 3.625 -6.5625 0.625 C-4.06581711 -0.62334144 -2.74920849 -0.32655125 0 0 Z " fill="#707E89" transform="translate(164.5625,112.375)"/>
<path d="M0 0 C1.46015291 0.28241641 2.91809793 0.57626614 4.375 0.875 C5.18710938 1.03742188 5.99921875 1.19984375 6.8359375 1.3671875 C9 2 9 2 11 4 C10.625 6.125 10.625 6.125 10 8 C8.54119891 7.85892253 7.08296449 7.71197585 5.625 7.5625 C4.40683594 7.44068359 4.40683594 7.44068359 3.1640625 7.31640625 C1 7 1 7 -1 6 C-0.67 4.02 -0.34 2.04 0 0 Z " fill="#3D4F5D" transform="translate(127,101)"/>
<path d="M0 0 C0.81210938 0.29003906 1.62421875 0.58007812 2.4609375 0.87890625 C3.27820313 1.16636719 4.09546875 1.45382813 4.9375 1.75 C5.56398438 1.97816406 6.19046875 2.20632812 6.8359375 2.44140625 C6.5059375 4.09140625 6.1759375 5.74140625 5.8359375 7.44140625 C4.37671057 7.32731032 2.91853152 7.19975081 1.4609375 7.06640625 C0.24277344 6.96199219 0.24277344 6.96199219 -1 6.85546875 C-3.1640625 6.44140625 -3.1640625 6.44140625 -5.1640625 4.44140625 C-4.9140625 2.37890625 -4.9140625 2.37890625 -4.1640625 0.44140625 C-2.1640625 -0.55859375 -2.1640625 -0.55859375 0 0 Z " fill="#5F707C" transform="translate(114.1640625,97.55859375)"/>
<path d="M0 0 C0.515625 0.2475 1.03125 0.495 1.5625 0.75 C1.2325 2.4 0.9025 4.05 0.5625 5.75 C-0.7575 6.08 -2.0775 6.41 -3.4375 6.75 C-3.4375 7.41 -3.4375 8.07 -3.4375 8.75 C-5.0875 8.75 -6.7375 8.75 -8.4375 8.75 C-8.7675 7.1 -9.0975 5.45 -9.4375 3.75 C-3.0375 -0.31153846 -3.0375 -0.31153846 0 0 Z " fill="#475A6A" transform="translate(35.4375,108.25)"/>
<path d="M0 0 C3.3 0 6.6 0 10 0 C10.66 1.32 11.32 2.64 12 4 C10 6 10 6 7.90625 6.265625 C7.1121875 6.26046875 6.318125 6.2553125 5.5 6.25 C4.7059375 6.25515625 3.911875 6.2603125 3.09375 6.265625 C1 6 1 6 -1 4 C-0.67 2.68 -0.34 1.36 0 0 Z " fill="#415362" transform="translate(93,96)"/>
<path d="M0 0 C3.63 0 7.26 0 11 0 C11 1.65 11 3.3 11 5 C10 6 10 6 7.71484375 6.09765625 C6.34005859 6.08025391 6.34005859 6.08025391 4.9375 6.0625 C4.01839844 6.05347656 3.09929687 6.04445313 2.15234375 6.03515625 C1.44207031 6.02355469 0.73179688 6.01195313 0 6 C-1.125 2.25 -1.125 2.25 0 0 Z " fill="#75818B" transform="translate(76,96)"/>
<path d="M0 0 C1.65 0 3.3 0 5 0 C4.22986708 8.00938233 4.22986708 8.00938233 1 11 C-0.32 11 -1.64 11 -3 11 C-3.75 9.4375 -3.75 9.4375 -4 7 C-2.86915563 4.49713591 -1.47860484 2.32992278 0 0 Z " fill="#556575" transform="translate(210,99)"/>
<path d="M0 0 C1.07310858 3.27185553 0.89263102 5.42947592 0.0625 8.75 C-0.13214844 9.54921875 -0.32679688 10.3484375 -0.52734375 11.171875 C-0.68332031 11.77515625 -0.83929688 12.3784375 -1 13 C-4.33333333 12.33333333 -7.66666667 11.66666667 -11 11 C-10.67 10.01 -10.34 9.02 -10 8 C-9.030625 7.525625 -8.06125 7.05125 -7.0625 6.5625 C-3.80653979 4.90129581 -3.29760996 4.24402491 -2 1 C-1.34 0.67 -0.68 0.34 0 0 Z " fill="#CDB06F" transform="translate(291,80)"/>
<path d="M0 0 C-0.99 0.495 -0.99 0.495 -2 1 C-2 1.66 -2 2.32 -2 3 C-2.66 3 -3.32 3 -4 3 C-3.67 3.99 -3.34 4.98 -3 6 C-4.25 8.6875 -4.25 8.6875 -6 11 C-6.99 11 -7.98 11 -9 11 C-9.33 7.7 -9.66 4.4 -10 1 C-5.64467851 -1.17766075 -4.53374042 -1.03039555 0 0 Z " fill="#72A59A" transform="translate(59,15)"/>
<path d="M0 0 C0 0.99 0 1.98 0 3 C-0.99 3 -1.98 3 -3 3 C-3 4.32 -3 5.64 -3 7 C-5.61941217 8.74627478 -7.03824877 9.38722388 -10 10 C-10 9.34 -10 8.68 -10 8 C-11.32 7.34 -12.64 6.68 -14 6 C-12.35 6 -10.7 6 -9 6 C-8.814375 4.7934375 -8.814375 4.7934375 -8.625 3.5625 C-8.41875 2.716875 -8.2125 1.87125 -8 1 C-5.29120665 -0.35439668 -2.99066732 -0.06501451 0 0 Z " fill="#73A294" transform="translate(287,55)"/>
<path d="M0 0 C3.39914975 1.13304992 4.05254451 2.12518475 6 5 C5.67 5.66 5.34 6.32 5 7 C1.52674819 8.1577506 -1.36067448 8.06866652 -5 8 C-5 9.98 -5 11.96 -5 14 C-5.33 14 -5.66 14 -6 14 C-6.36923077 7.47692308 -6.36923077 7.47692308 -4.5 5.0625 C-4.005 4.711875 -3.51 4.36125 -3 4 C-3.33 3.01 -3.66 2.02 -4 1 C-2.68 1.33 -1.36 1.66 0 2 C0 1.34 0 0.68 0 0 Z " fill="#8AAC98" transform="translate(125,38)"/>
<path d="M0 0 C0.33 0 0.66 0 1 0 C1.05416741 2.72943537 1.09375225 5.45778564 1.125 8.1875 C1.15013672 9.34088867 1.15013672 9.34088867 1.17578125 10.51757812 C1.21254316 14.80034056 1.03742246 18.11380531 -1 22 C-2.58272601 23.58272601 -4.38034003 23.34735747 -6.5625 23.5625 C-7.80193359 23.68818359 -7.80193359 23.68818359 -9.06640625 23.81640625 C-9.70449219 23.87699219 -10.34257812 23.93757813 -11 24 C-11.33 23.01 -11.66 22.02 -12 21 C-9.36 21 -6.72 21 -4 21 C-1.98554136 16.79165724 -1.61889392 12.84236302 -1.4375 8.25 C-1.12204433 1.12204433 -1.12204433 1.12204433 0 0 Z " fill="#9C9F6C" transform="translate(339,52)"/>
<path d="M0 0 C0.99 0.33 1.98 0.66 3 1 C2.67 3.64 2.34 6.28 2 9 C2.598125 9.268125 3.19625 9.53625 3.8125 9.8125 C6 11 6 11 9 14 C5.7 13.34 2.4 12.68 -1 12 C-1.92470553 7.28400182 -2.22923777 4.32734391 0 0 Z " fill="#93B6A0" transform="translate(263,79)"/>
<path d="M0 0 C2.3125 -0.25 2.3125 -0.25 5 0 C7.26283665 2.10677895 7.90904198 3.53384016 8.5 6.5625 C8 9 8 9 5.5 10.8125 C4.675 11.204375 3.85 11.59625 3 12 C1.875 6.375 1.875 6.375 3 3 C2.34 3 1.68 3 1 3 C0.67 2.01 0.34 1.02 0 0 Z " fill="#91BDB6" transform="translate(191,74)"/>
<path d="M0 0 C0.99 0.33 1.98 0.66 3 1 C3.0270043 2.45823212 3.04639787 3.91660675 3.0625 5.375 C3.07410156 6.18710938 3.08570313 6.99921875 3.09765625 7.8359375 C3 10 3 10 2 12 C0.68 11.67 -0.64 11.34 -2 11 C-3.35384615 4.6 -3.35384615 4.6 -1.5625 1.5625 C-1.046875 1.046875 -0.53125 0.53125 0 0 Z " fill="#64988E" transform="translate(57,59)"/>
<path d="M0 0 C1.32 0 2.64 0 4 0 C4 1.32 4 2.64 4 4 C2.68 4.33 1.36 4.66 0 5 C-0.33 6.32 -0.66 7.64 -1 9 C-3.97 8.505 -3.97 8.505 -7 8 C-6.34 7.67 -5.68 7.34 -5 7 C-5 6.34 -5 5.68 -5 5 C-5.66 5 -6.32 5 -7 5 C-6.67 4.34 -6.34 3.68 -6 3 C-4.35 3 -2.7 3 -1 3 C-0.67 2.01 -0.34 1.02 0 0 Z " fill="#8B9247" transform="translate(337,40)"/>
<path d="M0 0 C0.66 0 1.32 0 2 0 C2.66 1.32 3.32 2.64 4 4 C8.455 3.505 8.455 3.505 13 3 C13 4.32 13 5.64 13 7 C6.07 6.505 6.07 6.505 -1 6 C-1 1 -1 1 0 0 Z " fill="#CBB06F" transform="translate(273,64)"/>
<path d="M0 0 C1.66611905 -0.042721 3.33382885 -0.04063832 5 0 C5.33 0.33 5.66 0.66 6 1 C7.155 1.165 8.31 1.33 9.5 1.5 C13 2 13 2 14 3 C14.04080783 4.99958364 14.04254356 7.00045254 14 9 C13.34 9 12.68 9 12 9 C11.67 8.01 11.34 7.02 11 6 C10.21625 6.061875 9.4325 6.12375 8.625 6.1875 C7.75875 6.125625 6.8925 6.06375 6 6 C5.34 5.01 4.68 4.02 4 3 C2.68 3 1.36 3 0 3 C0 2.01 0 1.02 0 0 Z " fill="#86AF92" transform="translate(275,71)"/>
<path d="M0 0 C1.4540625 0.0309375 1.4540625 0.0309375 2.9375 0.0625 C1.6175 0.3925 0.2975 0.7225 -1.0625 1.0625 C-0.4025 1.3925 0.2575 1.7225 0.9375 2.0625 C1.5625 4.125 1.5625 4.125 1.9375 6.0625 C0.9475 6.0625 -0.0425 6.0625 -1.0625 6.0625 C-0.4025 7.3825 0.2575 8.7025 0.9375 10.0625 C-0.3825 10.0625 -1.7025 10.0625 -3.0625 10.0625 C-5.0625 7.0625 -5.0625 7.0625 -4.75 3.9375 C-3.82710098 0.0781041 -3.82710098 0.0781041 0 0 Z " fill="#8B904B" transform="translate(137.0625,48.9375)"/>
<path d="M0 0 C1.32 0.33 2.64 0.66 4 1 C4 3.64 4 6.28 4 9 C2.02 9.66 0.04 10.32 -2 11 C-1.85950482 9.52031676 -1.71245174 8.04125484 -1.5625 6.5625 C-1.48128906 5.73878906 -1.40007812 4.91507813 -1.31640625 4.06640625 C-1 2 -1 2 0 1 C0 0.67 0 0.34 0 0 Z " fill="#689B8F" transform="translate(132,22)"/>
<path d="M0 0 C0.99 0.33 1.98 0.66 3 1 C3.33 2.98 3.66 4.96 4 7 C3.071875 7.309375 3.071875 7.309375 2.125 7.625 C-0.84653645 9.54775888 -1.13024659 11.66594527 -2 15 C-2.66 15 -3.32 15 -4 15 C-3.43179252 9.54520815 -2.05362055 5.08940744 0 0 Z " fill="#C5AF75" transform="translate(269,73)"/>
<path d="M0 0 C0.33 0 0.66 0 1 0 C1.125 3.375 1.125 3.375 1 7 C-1 9 -1 9 -2.9453125 9.1953125 C-4.96354167 9.13020833 -6.98177083 9.06510417 -9 9 C-9 13.95 -9 18.9 -9 24 C-9.33 24 -9.66 24 -10 24 C-10 18.72 -10 13.44 -10 8 C-8.02 7.67 -6.04 7.34 -4 7 C-3.34 6.67 -2.68 6.34 -2 6 C-1.40929986 4.05396726 -1.40929986 4.05396726 -1 2 C-0.67 1.34 -0.34 0.68 0 0 Z " fill="#DDCFA8" transform="translate(43,39)"/>
<path d="M0 0 C0.33 0 0.66 0 1 0 C1.02721176 1.89575251 1.04649136 3.79161979 1.0625 5.6875 C1.07410156 6.74324219 1.08570313 7.79898438 1.09765625 8.88671875 C1.00865425 11.72410262 0.64939838 14.2438919 0 17 C-0.66 17 -1.32 17 -2 17 C-3.24659153 13.37434999 -2.78926902 10.54787577 -2.125 6.8125 C-1.94195312 5.74644531 -1.75890625 4.68039063 -1.5703125 3.58203125 C-1 1 -1 1 0 0 Z " fill="#88A389" transform="translate(295,72)"/>
<path d="M0 0 C1.32 0.33 2.64 0.66 4 1 C4 1.99 4 2.98 4 4 C4.66 4.33 5.32 4.66 6 5 C5.67 5.99 5.34 6.98 5 8 C2.36 8.33 -0.28 8.66 -3 9 C-3 10.32 -3 11.64 -3 13 C-4.65 12.67 -6.3 12.34 -8 12 C-7.01 11.67 -6.02 11.34 -5 11 C-4.26676204 8.98491642 -4.26676204 8.98491642 -4 7 C-1.69 7 0.62 7 3 7 C2.505 6.21625 2.01 5.4325 1.5 4.625 C0 2 0 2 0 0 Z " fill="#ACCDC6" transform="translate(292,47)"/>
<path d="M0 0 C0.33 0 0.66 0 1 0 C2.92031564 7.68126256 1.94945506 14.48067334 0 22 C-0.33 22 -0.66 22 -1 22 C-1.02903577 18.89585298 -1.0468107 15.79174091 -1.0625 12.6875 C-1.07087891 11.80642578 -1.07925781 10.92535156 -1.08789062 10.01757812 C-1.09111328 9.17001953 -1.09433594 8.32246094 -1.09765625 7.44921875 C-1.10289307 6.66893311 -1.10812988 5.88864746 -1.11352539 5.0847168 C-1 3 -1 3 0 0 Z " fill="#ACAF85" transform="translate(349,53)"/>
<path d="M0 0 C2 2 2 2 3 5 C5.97065509 4.65772428 5.97065509 4.65772428 9 4 C9.33 3.34 9.66 2.68 10 2 C10.33 3.32 10.66 4.64 11 6 C6.8204355 8.78637633 4.85331323 7.79562512 0 7 C0 4.69 0 2.38 0 0 Z " fill="#CEBA92" transform="translate(203,78)"/>
<path d="M0 0 C2.31 0 4.62 0 7 0 C6.01 3.3 5.02 6.6 4 10 C3.34 9.67 2.68 9.34 2 9 C1.66666667 7.33333333 1.33333333 5.66666667 1 4 C0.34 3.67 -0.32 3.34 -1 3 C-0.67 2.01 -0.34 1.02 0 0 Z " fill="#7EB0A6" transform="translate(289,55)"/>
<path d="M0 0 C6.625 0.75 6.625 0.75 10 3 C8.68 3.33 7.36 3.66 6 4 C6.66 4.66 7.32 5.32 8 6 C6.35 6.66 4.7 7.32 3 8 C3 7.01 3 6.02 3 5 C2.01 4.67 1.02 4.34 0 4 C0 2.68 0 1.36 0 0 Z " fill="#A0A86A" transform="translate(156,17)"/>
<path d="M0 0 C0.33 1.32 0.66 2.64 1 4 C-0.98 4.33 -2.96 4.66 -5 5 C-5.66 7.64 -6.32 10.28 -7 13 C-7.66 13 -8.32 13 -9 13 C-8.65093723 7.18228715 -6.99132705 0 0 0 Z " fill="#9DA36D" transform="translate(332,45)"/>
<path d="M0 0 C0.33 0 0.66 0 1 0 C1 6.6 1 13.2 1 20 C0.01 19.67 -0.98 19.34 -2 19 C-2 15.7 -2 12.4 -2 9 C-1.34 9 -0.68 9 0 9 C0 6.03 0 3.06 0 0 Z " fill="#ACB587" transform="translate(324,85)"/>
<path d="M0 0 C0.99 0 1.98 0 3 0 C3.1875 3.375 3.1875 3.375 3 7 C-0.4352048 9.29013653 -1.985331 9.17842973 -6 9 C-4.625 7.5 -4.625 7.5 -3 6 C-2.34 6 -1.68 6 -1 6 C-0.67 4.02 -0.34 2.04 0 0 Z " fill="#979F65" transform="translate(128,78)"/>
<path d="M0 0 C-0.61277612 2.96175123 -1.25372522 4.38058783 -3 7 C-4.32 6.67 -5.64 6.34 -7 6 C-7 5.34 -7 4.68 -7 4 C-7.66 3.67 -8.32 3.34 -9 3 C-2.25 0 -2.25 0 0 0 Z " fill="#9CA36A" transform="translate(155,18)"/>
<path d="M0 0 C1.51400391 0.01740234 1.51400391 0.01740234 3.05859375 0.03515625 C4.07050781 0.04417969 5.08242187 0.05320312 6.125 0.0625 C7.29869141 0.07990234 7.29869141 0.07990234 8.49609375 0.09765625 C8.49609375 0.42765625 8.49609375 0.75765625 8.49609375 1.09765625 C5.52609375 1.09765625 2.55609375 1.09765625 -0.50390625 1.09765625 C-0.50390625 2.08765625 -0.50390625 3.07765625 -0.50390625 4.09765625 C2.46609375 4.42765625 5.43609375 4.75765625 8.49609375 5.09765625 C8.49609375 5.42765625 8.49609375 5.75765625 8.49609375 6.09765625 C4.86609375 6.09765625 1.23609375 6.09765625 -2.50390625 6.09765625 C-2.83390625 4.44765625 -3.16390625 2.79765625 -3.50390625 1.09765625 C-2.50390625 0.09765625 -2.50390625 0.09765625 0 0 Z " fill="#97A2AC" transform="translate(178.50390625,114.90234375)"/>
<path d="M0 0 C-0.33 0.99 -0.66 1.98 -1 3 C0.32 3.66 1.64 4.32 3 5 C-3.75 6.125 -3.75 6.125 -6 5 C-6 3.35 -6 1.7 -6 0 C-3.50907189 -1.24546405 -2.58919267 -0.7767578 0 0 Z " fill="#6C7D87" transform="translate(64,99)"/>
<path d="M0 0 C1.65 0.33 3.3 0.66 5 1 C5 2.32 5 3.64 5 5 C4 6 4 6 1.93359375 6.09765625 C1.10988281 6.08605469 0.28617187 6.07445313 -0.5625 6.0625 C-1.38878906 6.05347656 -2.21507813 6.04445313 -3.06640625 6.03515625 C-3.70449219 6.02355469 -4.34257813 6.01195313 -5 6 C-5 5.67 -5 5.34 -5 5 C-3.68 4.67 -2.36 4.34 -1 4 C-0.67 2.68 -0.34 1.36 0 0 Z " fill="#5C6F7E" transform="translate(99,96)"/>
<path d="M0 0 C0.99 0.66 1.98 1.32 3 2 C3.1875 4.625 3.1875 4.625 3 7 C1.35 6.67 -0.3 6.34 -2 6 C-2.33 4.68 -2.66 3.36 -3 2 C-2.01 1.34 -1.02 0.68 0 0 Z " fill="#4D6070" transform="translate(112,97)"/>
<path d="M0 0 C1.258125 0.12375 2.51625 0.2475 3.8125 0.375 C4.87404297 0.47941406 4.87404297 0.47941406 5.95703125 0.5859375 C8 1 8 1 11 3 C11 3.66 11 4.32 11 5 C8 6 8 6 4.375 4.75 C1 3 1 3 0 0 Z " fill="#9EAF8D" transform="translate(267,88)"/>
<path d="M0 0 C1.32 0.33 2.64 0.66 4 1 C4 1.66 4 2.32 4 3 C6.46326712 4.6446674 6.46326712 4.6446674 9 6 C8.67 6.66 8.34 7.32 8 8 C1.125 7.125 1.125 7.125 0 6 C-0.04080783 4.00041636 -0.04254356 1.99954746 0 0 Z " fill="#C6AB6D" transform="translate(14,40)"/>
<path d="M0 0 C0.33 0 0.66 0 1 0 C1.25 2.8125 1.25 2.8125 1 6 C-0.625 7.9375 -0.625 7.9375 -3 9 C-6.67293796 8.77962372 -8.36966546 8.63033454 -11 6 C-9.3603125 6.0928125 -9.3603125 6.0928125 -7.6875 6.1875 C-4.12317404 6.33352473 -4.12317404 6.33352473 -2.125 4.6875 C-0.81453877 2.88214533 -0.81453877 2.88214533 0 0 Z " fill="#9EA172" transform="translate(169,23)"/>
<path d="M0 0 C2.97 0 5.94 0 9 0 C7.875 1.9375 7.875 1.9375 6 4 C2.8125 4.75 2.8125 4.75 0 5 C0 3.35 0 1.7 0 0 Z " fill="#2E4354" transform="translate(77,96)"/>
<path d="M0 0 C0.66 0 1.32 0 2 0 C3.44754255 1.44754255 3.55733561 3.03962913 4 5 C3.34 5 2.68 5 2 5 C2 5.66 2 6.32 2 7 C-0.64 7 -3.28 7 -6 7 C-5.67 5.68 -5.34 4.36 -5 3 C-5 3.99 -5 4.98 -5 6 C-3.68 5.67 -2.36 5.34 -1 5 C-0.67 3.35 -0.34 1.7 0 0 Z " fill="#87ADA8" transform="translate(56,80)"/>
<path d="M0 0 C1.32 0 2.64 0 4 0 C2.68954637 3.93136089 1.16791954 6.31206827 -2 9 C-2.99 9.33 -3.98 9.66 -5 10 C-5 7 -5 7 -3 5 C-2.01 5 -1.02 5 0 5 C-0.2784375 4.0409375 -0.2784375 4.0409375 -0.5625 3.0625 C-0.706875 2.381875 -0.85125 1.70125 -1 1 C-0.67 0.67 -0.34 0.34 0 0 Z " fill="#A1A574" transform="translate(344,75)"/>
<path d="M0 0 C1.65 0.33 3.3 0.66 5 1 C5 2.32 5 3.64 5 5 C3.35 5.33 1.7 5.66 0 6 C-1.125 2.25 -1.125 2.25 0 0 Z " fill="#5C6C7B" transform="translate(207,104)"/>
<path d="M0 0 C1.46015291 0.28241641 2.91809793 0.57626614 4.375 0.875 C5.18710938 1.03742188 5.99921875 1.19984375 6.8359375 1.3671875 C9 2 9 2 11 4 C10.67 4.99 10.34 5.98 10 7 C10 6.34 10 5.68 10 5 C5.545 4.01 5.545 4.01 1 3 C0.34 3.99 -0.32 4.98 -1 6 C-0.67 4.02 -0.34 2.04 0 0 Z " fill="#727E89" transform="translate(127,101)"/>
<path d="M0 0 C0.33 0.66 0.66 1.32 1 2 C-0.65 2 -2.3 2 -4 2 C-4.99 5.3 -5.98 8.6 -7 12 C-7.33 12 -7.66 12 -8 12 C-8.0270043 10.54176788 -8.04639787 9.08339325 -8.0625 7.625 C-8.07410156 6.81289062 -8.08570313 6.00078125 -8.09765625 5.1640625 C-8 3 -8 3 -7 1 C-4.67843403 0.59270772 -2.3431213 0.25561323 0 0 Z " fill="#87AE9C" transform="translate(277,59)"/>
<path d="M0 0 C1.98 0 3.96 0 6 0 C6 0.99 6 1.98 6 3 C5.01 3 4.02 3 3 3 C3 4.32 3 5.64 3 7 C1.02 7.99 1.02 7.99 -1 9 C-1.33 8.01 -1.66 7.02 -2 6 C-1.34 6 -0.68 6 0 6 C0 5.01 0 4.02 0 3 C0.66 3 1.32 3 2 3 C2 2.34 2 1.68 2 1 C1.34 0.67 0.68 0.34 0 0 Z " fill="#7CAAA4" transform="translate(281,55)"/>
<path d="M0 0 C0.33 0 0.66 0 1 0 C1.33 2.31 1.66 4.62 2 7 C2.78375 6.938125 3.5675 6.87625 4.375 6.8125 C5.674375 6.9053125 5.674375 6.9053125 7 7 C7.99 8.485 7.99 8.485 9 10 C5.625 10.125 5.625 10.125 2 10 C0 8 0 8 -0.1953125 6.0546875 C-0.13020833 4.03645833 -0.06510417 2.01822917 0 0 Z " fill="#98BBAE" transform="translate(166,38)"/>
<path d="M0 0 C0 1.98 0 3.96 0 6 C-1.98 6 -3.96 6 -6 6 C-6 5.67 -6 5.34 -6 5 C-4.35 5 -2.7 5 -1 5 C-1 3.68 -1 2.36 -1 1 C-3.97 1.66 -6.94 2.32 -10 3 C-10.33 2.01 -10.66 1.02 -11 0 C-6.94952424 -1.35015859 -4.2079832 -0.62084998 0 0 Z " fill="#BCB075" transform="translate(287,66)"/>
<path d="M0 0 C3.27723056 1.05339554 4.60460094 2.63763259 6.3125 5.5 C7.1478125 7.2325 7.1478125 7.2325 8 9 C7.67 9.66 7.34 10.32 7 11 C5 10 5 10 3.875 6.9375 C3.441875 5.4834375 3.441875 5.4834375 3 4 C2.34 4 1.68 4 1 4 C0.67 2.68 0.34 1.36 0 0 Z " fill="#A6A978" transform="translate(341,40)"/>
<path d="M0 0 C-1.25 1.5 -1.25 1.5 -3 3 C-4.32 3 -5.64 3 -7 3 C-7 3.66 -7 4.32 -7 5 C-8.65 4.67 -10.3 4.34 -12 4 C-11 2 -11 2 -8.25 0.875 C-5.29813104 0.08026605 -3.02780163 -0.17810598 0 0 Z " fill="#D0B98F" transform="translate(243,40)"/>
<path d="M0 0 C0.268125 0.639375 0.53625 1.27875 0.8125 1.9375 C1.88667752 4.33131686 1.88667752 4.33131686 5 5 C5 5.66 5 6.32 5 7 C6.32 7.33 7.64 7.66 9 8 C6.36 8 3.72 8 1 8 C-0.42944945 5.64561267 -1.08661261 4.51967567 -0.625 1.75 C-0.41875 1.1725 -0.2125 0.595 0 0 Z " fill="#9EA271" transform="translate(143,79)"/>
<path d="M0 0 C0.99 0.33 1.98 0.66 3 1 C2.67 7.27 2.34 13.54 2 20 C1.67 20 1.34 20 1 20 C0.67 13.4 0.34 6.8 0 0 Z " fill="#C7B285" transform="translate(212,54)"/>
<path d="M0 0 C0.33 0.66 0.66 1.32 1 2 C1.66 2 2.32 2 3 2 C3 2.66 3 3.32 3 4 C3.99 3.67 4.98 3.34 6 3 C6 4.98 6 6.96 6 9 C4.68 8.34 3.36 7.68 2 7 C2 6.34 2 5.68 2 5 C1.34 5 0.68 5 0 5 C0 3.35 0 1.7 0 0 Z " fill="#A9D0C6" transform="translate(296,78)"/>
<path d="M0 0 C0.66 0.33 1.32 0.66 2 1 C1.67 3.31 1.34 5.62 1 8 C0.01 8 -0.98 8 -2 8 C-2.125 5.125 -2.125 5.125 -2 2 C-1.34 1.34 -0.68 0.68 0 0 Z " fill="#9BBFB3" transform="translate(307,77)"/>
<path d="M0 0 C0 0.66 0 1.32 0 2 C-5.445 3.485 -5.445 3.485 -11 5 C-11 4.34 -11 3.68 -11 3 C-7.14243493 0.84694043 -4.44870215 -0.39253254 0 0 Z " fill="#9EBAB4" transform="translate(128,13)"/>
<path d="M0 0 C0.66 0 1.32 0 2 0 C2.99 1.98 3.98 3.96 5 6 C3.02 6 1.04 6 -1 6 C-1.625 4.125 -1.625 4.125 -2 2 C-1.34 1.34 -0.68 0.68 0 0 Z " fill="#647481" transform="translate(194,113)"/>
<path d="M0 0 C1.32 0.33 2.64 0.66 4 1 C4 2.65 4 4.3 4 6 C1.36 6 -1.28 6 -4 6 C-3.34 5.566875 -2.68 5.13375 -2 4.6875 C-1.01 3.8521875 -1.01 3.8521875 0 3 C0 2.01 0 1.02 0 0 Z " fill="#798490" transform="translate(166,113)"/>
<path d="M0 0 C6.75 1.625 6.75 1.625 9 5 C5.37 4.67 1.74 4.34 -2 4 C-1.34 3.67 -0.68 3.34 0 3 C0 2.01 0 1.02 0 0 Z " fill="#9EA56C" transform="translate(327,81)"/>
<path d="M0 0 C0.66 1.32 1.32 2.64 2 4 C0 7 0 7 -2.1640625 7.51171875 C-2.97617187 7.56972656 -3.78828125 7.62773438 -4.625 7.6875 C-5.85089844 7.78611328 -5.85089844 7.78611328 -7.1015625 7.88671875 C-7.72804688 7.92410156 -8.35453125 7.96148437 -9 8 C-9.33 7.01 -9.66 6.02 -10 5 C-7.36 5 -4.72 5 -2 5 C-1.34 3.35 -0.68 1.7 0 0 Z " fill="#B1B487" transform="translate(337,68)"/>
<path d="M0 0 C1.65 0 3.3 0 5 0 C5.33 0.99 5.66 1.98 6 3 C7.65 3.33 9.3 3.66 11 4 C9.02 4.99 9.02 4.99 7 6 C6.5875 5.505 6.175 5.01 5.75 4.5 C3.87797662 2.56613908 3.87797662 2.56613908 0 3 C0 2.01 0 1.02 0 0 Z " fill="#96B8A4" transform="translate(275,71)"/>
<path d="M0 0 C2 1.8125 2 1.8125 4 4 C4 4.99 4 5.98 4 7 C2.35 7.33 0.7 7.66 -1 8 C-0.67 5.36 -0.34 2.72 0 0 Z " fill="#62978B" transform="translate(116,20)"/>
<path d="M0 0 C0.66 0 1.32 0 2 0 C2 2.31 2 4.62 2 7 C0.68 6.67 -0.64 6.34 -2 6 C-1.125 1.125 -1.125 1.125 0 0 Z " fill="#879044" transform="translate(321,96)"/>
<path d="M0 0 C2.3125 -0.25 2.3125 -0.25 5 0 C7.40311451 2.23738248 7.96341425 3.46340904 8.1875 6.75 C8.125625 7.4925 8.06375 8.235 8 9 C7.71125 8.360625 7.4225 7.72125 7.125 7.0625 C6.17176549 4.84793921 6.17176549 4.84793921 4 4 C4 3.34 4 2.68 4 2 C3.01 2.33 2.02 2.66 1 3 C0.67 2.01 0.34 1.02 0 0 Z " fill="#ABCABF" transform="translate(191,74)"/>
<path d="M0 0 C0.33 0.99 0.66 1.98 1 3 C-2.63 3 -6.26 3 -10 3 C-9 1 -9 1 -7.25 0.375 C-4.79549443 -0.03408426 -2.4840589 -0.06900164 0 0 Z " fill="#9DB18E" transform="translate(286,63)"/>
<path d="M0 0 C5.75 -0.125 5.75 -0.125 8 1 C7.67 1.99 7.34 2.98 7 4 C2.25 3.125 2.25 3.125 0 2 C0 1.34 0 0.68 0 0 Z " fill="#9AC1BA" transform="translate(105,38)"/>
<path d="M0 0 C1.41623216 -0.05447047 2.83308191 -0.09300508 4.25 -0.125 C5.03890625 -0.14820313 5.8278125 -0.17140625 6.640625 -0.1953125 C9.20731941 0.0171622 10.7916067 0.71345895 13 2 C13 2.33 13 2.66 13 3 C11.02 3.33 9.04 3.66 7 4 C6.67 3.01 6.34 2.02 6 1 C4.02 1 2.04 1 0 1 C0 0.67 0 0.34 0 0 Z " fill="#A7AB80" transform="translate(328,37)"/>
<path d="M0 0 C2.31 0 4.62 0 7 0 C6.34 1.32 5.68 2.64 5 4 C3.35 3.67 1.7 3.34 0 3 C0 2.01 0 1.02 0 0 Z " fill="#304358" transform="translate(161,114)"/>
<path d="M0 0 C0.33 0 0.66 0 1 0 C1.125 3.375 1.125 3.375 1 7 C0.34 7.66 -0.32 8.32 -1 9 C-4.625 8.625 -4.625 8.625 -8 8 C-4.91190305 6.23537317 -3.76687864 6 0 6 C0 4.02 0 2.04 0 0 Z " fill="#A1BFB7" transform="translate(293,89)"/>
<path d="M0 0 C0.66 0 1.32 0 2 0 C2.1875 3.375 2.1875 3.375 2 7 C1.01 7.66 0.02 8.32 -1 9 C-1.125 2.25 -1.125 2.25 0 0 Z " fill="#A0BCB5" transform="translate(116,43)"/>
<path d="M0 0 C2.33944736 0.28730055 4.6739143 0.61936779 7 1 C7 1.66 7 2.32 7 3 C6.01 3 5.02 3 4 3 C4 3.66 4 4.32 4 5 C3.34 5 2.68 5 2 5 C2 4.01 2 3.02 2 2 C1.01 1.67 0.02 1.34 -1 1 C-0.67 0.67 -0.34 0.34 0 0 Z " fill="#949E56" transform="translate(162,20)"/>
<path d="M0 0 C2.18975773 3.28463659 2.99806563 6.20696275 4 10 C3.01 10 2.02 10 1 10 C1 9.34 1 8.68 1 8 C0.34 8 -0.32 8 -1 8 C-0.67 5.36 -0.34 2.72 0 0 Z " fill="#A9B078" transform="translate(323,63)"/>
<path d="M0 0 C1.65 0.33 3.3 0.66 5 1 C5 1.66 5 2.32 5 3 C3.35 3 1.7 3 0 3 C0 4.98 0 6.96 0 9 C-0.33 9 -0.66 9 -1 9 C-1.125 2.25 -1.125 2.25 0 0 Z " fill="#C4CCAE" transform="translate(120,43)"/>
<path d="M0 0 C-0.33 0.99 -0.66 1.98 -1 3 C-3.97 3 -6.94 3 -10 3 C-6.1865669 0.45771127 -4.5252563 -0.11908569 0 0 Z " fill="#9FBEB7" transform="translate(197,45)"/>
<path d="M0 0 C0.33 0.66 0.66 1.32 1 2 C-1.31 1.67 -3.62 1.34 -6 1 C-6.33 2.32 -6.66 3.64 -7 5 C-7.66 4.67 -8.32 4.34 -9 4 C-9 3.01 -9 2.02 -9 1 C-6.04335481 -0.4783226 -3.25770263 -0.06032783 0 0 Z " fill="#CDBC91" transform="translate(212,38)"/>
<path d="M0 0 C2.375 -0.125 2.375 -0.125 5 0 C7 2 7 2 7.125 5.125 C7.08375 6.07375 7.0425 7.0225 7 8 C6.67 8 6.34 8 6 8 C6 6.35 6 4.7 6 3 C5.195625 2.87625 4.39125 2.7525 3.5625 2.625 C2.716875 2.41875 1.87125 2.2125 1 2 C0.67 1.34 0.34 0.68 0 0 Z " fill="#A8C5BC" transform="translate(191,37)"/>
<path d="M0 0 C1.65 0.33 3.3 0.66 5 1 C4.01 1.495 4.01 1.495 3 2 C2.34444881 4.52733235 2.34444881 4.52733235 2 7 C1.67 6.01 1.34 5.02 1 4 C0.34 4 -0.32 4 -1 4 C-0.67 2.68 -0.34 1.36 0 0 Z " fill="#9DA565" transform="translate(152,27)"/>
<path d="M0 0 C2.97 0 5.94 0 9 0 C8.67 0.66 8.34 1.32 8 2 C7.236875 1.9175 6.47375 1.835 5.6875 1.75 C2.85416667 1.70833333 2.85416667 1.70833333 1.1875 4 C0.795625 4.66 0.40375 5.32 0 6 C-1.125 2.25 -1.125 2.25 0 0 Z " fill="#97BCB6" transform="translate(120,20)"/>
<path d="M0 0 C-0.33 1.65 -0.66 3.3 -1 5 C-2.32 5 -3.64 5 -5 5 C-4.625 3.0625 -4.625 3.0625 -4 1 C-2 0 -2 0 0 0 Z " fill="#6A7A85" transform="translate(154,110)"/>
<path d="M0 0 C1.32 0.33 2.64 0.66 4 1 C3.67 2.65 3.34 4.3 3 6 C2.01 6 1.02 6 0 6 C0 4.02 0 2.04 0 0 Z " fill="#6D7C85" transform="translate(33,108)"/>
<path d="M0 0 C0.66 0 1.32 0 2 0 C2 1.65 2 3.3 2 5 C1.01 5.33 0.02 5.66 -1 6 C-1 5.34 -1 4.68 -1 4 C-1.66 4 -2.32 4 -3 4 C-3 3.34 -3 2.68 -3 2 C-2.01 2 -1.02 2 0 2 C0 1.34 0 0.68 0 0 Z " fill="#CCB173" transform="translate(292,69)"/>
<path d="M0 0 C0.33 0 0.66 0 1 0 C1.125 6.625 1.125 6.625 0 10 C-0.66 10 -1.32 10 -2 10 C-1.125 2.25 -1.125 2.25 0 0 Z " fill="#ACB380" transform="translate(143,25)"/>
<path d="M0 0 C3.09162264 1.38589981 4.49183541 2.49183541 7 5 C3.7 4.34 0.4 3.68 -3 3 C-2.01 2.67 -1.02 2.34 0 2 C0 1.34 0 0.68 0 0 Z " fill="#ABC6B4" transform="translate(265,88)"/>
<path d="M0 0 C1.04005702 3.38018531 1.08004482 6.4780279 1 10 C-0.5625 8.875 -0.5625 8.875 -2 7 C-1.56521739 1.56521739 -1.56521739 1.56521739 0 0 Z " fill="#B8BA8D" transform="translate(134,49)"/>
<path d="M0 0 C-0.33 0.99 -0.66 1.98 -1 3 C-3.33333333 3 -5.66666667 3 -8 3 C-8 2.34 -8 1.68 -8 1 C-3.375 -1.125 -3.375 -1.125 0 0 Z " fill="#869051" transform="translate(131,45)"/>
<path d="M0 0 C-0.99 3.3 -1.98 6.6 -3 10 C-3.33 10 -3.66 10 -4 10 C-4 7.03 -4 4.06 -4 1 C-2 0 -2 0 0 0 Z " fill="#8B9050" transform="translate(145,34)"/>
<path d="M0 0 C3.98245614 3.98245614 3.98245614 3.98245614 4.0625 8.625 C4.041875 9.73875 4.02125 10.8525 4 12 C3.67 12 3.34 12 3 12 C2.01 8.04 1.02 4.08 0 0 Z " fill="#AAC5BE" transform="translate(133,16)"/>
<path d="M0 0 C0.99 0.33 1.98 0.66 3 1 C3 1.99 3 2.98 3 4 C1.02 4 -0.96 4 -3 4 C-2.67 3.01 -2.34 2.02 -2 1 C-1.34 0.67 -0.68 0.34 0 0 Z " fill="#475765" transform="translate(134,105)"/>
<path d="M0 0 C0.33 0 0.66 0 1 0 C1.3125 2.8125 1.3125 2.8125 1 6 C-1.375 7.9375 -1.375 7.9375 -4 9 C-4.66 8.67 -5.32 8.34 -6 8 C-4.6875 6.5 -4.6875 6.5 -3 5 C-2.01 5 -1.02 5 0 5 C0 3.35 0 1.7 0 0 Z " fill="#87A37B" transform="translate(289,75)"/>
<path d="M0 0 C0.66 0.33 1.32 0.66 2 1 C2.625 3.5625 2.625 3.5625 3 6 C2.01 6.495 2.01 6.495 1 7 C1 6.34 1 5.68 1 5 C0.34 5 -0.32 5 -1 5 C-1.33 4.01 -1.66 3.02 -2 2 C-1.34 1.34 -0.68 0.68 0 0 Z " fill="#7FB0A4" transform="translate(298,75)"/>
<path d="M0 0 C1.98 0.99 1.98 0.99 4 2 C4 3.65 4 5.3 4 7 C3.01 7 2.02 7 1 7 C0.67 4.69 0.34 2.38 0 0 Z " fill="#67A497" transform="translate(288,58)"/>
<path d="M0 0 C0.66 0 1.32 0 2 0 C3.32 2.31 4.64 4.62 6 7 C3.5625 6.3125 3.5625 6.3125 1 5 C0.1875 2.375 0.1875 2.375 0 0 Z " fill="#B3D1C8" transform="translate(271,45)"/>
</svg>
